# xmcd
#
# Track frame offsets: 
#        150
#        12530
#        29354
#        43495
#        64287
#        77369
#        88543
#        103684
#        115913
#        130090
#        149489
#        169941
#        188956
#        205819
#
# Disc length: 2959 seconds
#
# Revision: 0
# Processed by: cddbd v1.5.2PL0 Copyright (c) Steve Scherf et al.
# Submitted via: ExactAudioCopy v0.99pb4
#
DISCID=c80b8d0e
DTITLE=Blues G - Blues G
DYEAR=2006
DGENRE=Blues
TTITLE0=Duse
TTITLE1=Je mi lito
TTITLE2=Mestske blues
TTITLE3=Balada o zivote v klusu
TTITLE4=Atlanta
TTITLE5=Cest La Vie
TTITLE6=Cibulacka
TTITLE7=Cim chtel bych byt
TTITLE8=Gazel o tobe v mem snu
TTITLE9=Lunapark
TTITLE10=Nebeska brana
TTITLE11=Refren blaznivy
TTITLE12=Stin
TTITLE13=Tobe naschval
EXTD=
EXTT0=
EXTT1=
EXTT2=
EXTT3=
EXTT4=
EXTT5=
EXTT6=
EXTT7=
EXTT8=
EXTT9=
EXTT10=
EXTT11=
EXTT12=
EXTT13=
PLAYORDER=
